<mxfile host="app.diagrams.net" modified="2023-03-26T19:09:55.724Z" agent="Mozilla/5.0 (Windows NT 10.0; Win64; x64) AppleWebKit/537.36 (KHTML, like Gecko) Chrome/111.0.0.0 Safari/537.36" etag="3rh4zdEdlkzIntWb0qJz" version="21.1.1" type="device">
  <diagram name="Page-1" id="JCEGxdFOgvOAtDUVBZYm">
    <mxGraphModel dx="840" dy="902" grid="1" gridSize="10" guides="1" tooltips="1" connect="1" arrows="1" fold="1" page="1" pageScale="1" pageWidth="850" pageHeight="1100" math="0" shadow="0">
      <root>
        <mxCell id="0" />
        <mxCell id="1" parent="0" />
        <mxCell id="HDsGMQWWcjxy8k_yasPS-3" value="Start&lt;br&gt;&lt;b&gt;/api/address-book&lt;/b&gt;" style="strokeWidth=2;html=1;shape=mxgraph.flowchart.start_2;whiteSpace=wrap;fontSize=16;" parent="1" vertex="1">
          <mxGeometry x="371" y="136" width="155" height="100" as="geometry" />
        </mxCell>
        <mxCell id="eZ3HsoYMMdEWsuuix7k3-1" value="&lt;b&gt;&lt;font style=&quot;font-size: 16px;&quot;&gt;Get All Address Book API&lt;/font&gt;&lt;/b&gt;" style="text;html=1;align=center;verticalAlign=middle;resizable=0;points=[];autosize=1;strokeColor=none;fillColor=none;" vertex="1" parent="1">
          <mxGeometry x="321" y="65" width="220" height="30" as="geometry" />
        </mxCell>
        <mxCell id="eZ3HsoYMMdEWsuuix7k3-2" value="&lt;b&gt;is&lt;br&gt;authorized?&lt;/b&gt;" style="rhombus;whiteSpace=wrap;html=1;" vertex="1" parent="1">
          <mxGeometry x="388.5" y="325" width="117.5" height="90" as="geometry" />
        </mxCell>
        <mxCell id="eZ3HsoYMMdEWsuuix7k3-3" value="&lt;b&gt;User input&lt;br&gt;&lt;/b&gt;Get the row-size &amp;amp; start-index&lt;br&gt;row-size: integer&lt;br&gt;start-index: integer" style="shape=parallelogram;html=1;strokeWidth=2;perimeter=parallelogramPerimeter;whiteSpace=wrap;rounded=1;arcSize=12;size=0.23;" vertex="1" parent="1">
          <mxGeometry x="330" y="470" width="230" height="89" as="geometry" />
        </mxCell>
        <mxCell id="eZ3HsoYMMdEWsuuix7k3-4" value="&lt;b&gt;Response code: 401&lt;/b&gt;&lt;br&gt;Unauthorized user" style="rounded=1;whiteSpace=wrap;html=1;absoluteArcSize=1;arcSize=14;strokeWidth=2;" vertex="1" parent="1">
          <mxGeometry x="697" y="335" width="132" height="70" as="geometry" />
        </mxCell>
        <mxCell id="eZ3HsoYMMdEWsuuix7k3-5" value="&lt;b&gt;Validate&lt;/b&gt;&amp;nbsp;&lt;br&gt;is the address book&amp;nbsp;&lt;br&gt;exists?" style="strokeWidth=2;html=1;shape=mxgraph.flowchart.decision;whiteSpace=wrap;" vertex="1" parent="1">
          <mxGeometry x="385" y="623" width="124" height="104" as="geometry" />
        </mxCell>
        <mxCell id="eZ3HsoYMMdEWsuuix7k3-6" value="&lt;b&gt;Response code: 404&lt;/b&gt;&lt;br&gt;Address book&lt;br&gt;&amp;nbsp;Not found" style="rounded=1;whiteSpace=wrap;html=1;absoluteArcSize=1;arcSize=14;strokeWidth=2;" vertex="1" parent="1">
          <mxGeometry x="568" y="639" width="120" height="70" as="geometry" />
        </mxCell>
        <mxCell id="eZ3HsoYMMdEWsuuix7k3-7" value="&lt;b&gt;Query&lt;/b&gt;&lt;br&gt;retrieve all the details of the address book from the start-index to the mentioned count" style="rounded=1;whiteSpace=wrap;html=1;absoluteArcSize=1;arcSize=14;strokeWidth=2;" vertex="1" parent="1">
          <mxGeometry x="96" y="645" width="170" height="60" as="geometry" />
        </mxCell>
        <mxCell id="eZ3HsoYMMdEWsuuix7k3-8" value="&lt;span&gt;Response code: 200&lt;br&gt;&lt;span style=&quot;font-weight: 400;&quot;&gt;List of address book stored in the database with respect to &lt;br&gt;input parameter&lt;/span&gt;&lt;br&gt;&lt;/span&gt;" style="rounded=1;whiteSpace=wrap;html=1;absoluteArcSize=1;arcSize=14;strokeWidth=2;fontStyle=1" vertex="1" parent="1">
          <mxGeometry x="84" y="764" width="192" height="60" as="geometry" />
        </mxCell>
        <mxCell id="eZ3HsoYMMdEWsuuix7k3-9" value="JSON" style="text;html=1;strokeColor=none;fillColor=none;align=center;verticalAlign=middle;whiteSpace=wrap;rounded=0;" vertex="1" parent="1">
          <mxGeometry x="99" y="736" width="60" height="30" as="geometry" />
        </mxCell>
        <mxCell id="eZ3HsoYMMdEWsuuix7k3-10" value="" style="endArrow=classic;html=1;rounded=0;entryX=0.5;entryY=0;entryDx=0;entryDy=0;exitX=0.5;exitY=1;exitDx=0;exitDy=0;exitPerimeter=0;" edge="1" parent="1" target="eZ3HsoYMMdEWsuuix7k3-2" source="HDsGMQWWcjxy8k_yasPS-3">
          <mxGeometry width="50" height="50" relative="1" as="geometry">
            <mxPoint x="450" y="239" as="sourcePoint" />
            <mxPoint x="447.2499999999999" y="325" as="targetPoint" />
          </mxGeometry>
        </mxCell>
        <mxCell id="eZ3HsoYMMdEWsuuix7k3-11" value="" style="endArrow=classic;html=1;rounded=0;exitX=0.5;exitY=1;exitDx=0;exitDy=0;entryX=0.5;entryY=0;entryDx=0;entryDy=0;" edge="1" parent="1" source="eZ3HsoYMMdEWsuuix7k3-2" target="eZ3HsoYMMdEWsuuix7k3-3">
          <mxGeometry width="50" height="50" relative="1" as="geometry">
            <mxPoint x="381" y="515" as="sourcePoint" />
            <mxPoint x="431" y="465" as="targetPoint" />
          </mxGeometry>
        </mxCell>
        <mxCell id="eZ3HsoYMMdEWsuuix7k3-12" value="" style="endArrow=classic;html=1;rounded=0;exitX=0.5;exitY=1;exitDx=0;exitDy=0;entryX=0.5;entryY=0;entryDx=0;entryDy=0;entryPerimeter=0;" edge="1" parent="1" source="eZ3HsoYMMdEWsuuix7k3-3" target="eZ3HsoYMMdEWsuuix7k3-5">
          <mxGeometry width="50" height="50" relative="1" as="geometry">
            <mxPoint x="381" y="515" as="sourcePoint" />
            <mxPoint x="431" y="465" as="targetPoint" />
          </mxGeometry>
        </mxCell>
        <mxCell id="eZ3HsoYMMdEWsuuix7k3-13" value="" style="endArrow=classic;html=1;rounded=0;exitX=0;exitY=0.5;exitDx=0;exitDy=0;exitPerimeter=0;entryX=1;entryY=0.5;entryDx=0;entryDy=0;" edge="1" parent="1" source="eZ3HsoYMMdEWsuuix7k3-5" target="eZ3HsoYMMdEWsuuix7k3-7">
          <mxGeometry width="50" height="50" relative="1" as="geometry">
            <mxPoint x="381" y="515" as="sourcePoint" />
            <mxPoint x="431" y="465" as="targetPoint" />
          </mxGeometry>
        </mxCell>
        <mxCell id="eZ3HsoYMMdEWsuuix7k3-14" value="" style="endArrow=classic;html=1;rounded=0;exitX=1;exitY=0.5;exitDx=0;exitDy=0;entryX=0;entryY=0.5;entryDx=0;entryDy=0;" edge="1" parent="1" source="eZ3HsoYMMdEWsuuix7k3-2" target="eZ3HsoYMMdEWsuuix7k3-4">
          <mxGeometry width="50" height="50" relative="1" as="geometry">
            <mxPoint x="381" y="515" as="sourcePoint" />
            <mxPoint x="431" y="465" as="targetPoint" />
          </mxGeometry>
        </mxCell>
        <mxCell id="eZ3HsoYMMdEWsuuix7k3-15" value="" style="endArrow=classic;html=1;rounded=0;exitX=1;exitY=0.5;exitDx=0;exitDy=0;exitPerimeter=0;entryX=0;entryY=0.5;entryDx=0;entryDy=0;" edge="1" parent="1" source="eZ3HsoYMMdEWsuuix7k3-5" target="eZ3HsoYMMdEWsuuix7k3-6">
          <mxGeometry width="50" height="50" relative="1" as="geometry">
            <mxPoint x="381" y="515" as="sourcePoint" />
            <mxPoint x="431" y="465" as="targetPoint" />
          </mxGeometry>
        </mxCell>
        <mxCell id="eZ3HsoYMMdEWsuuix7k3-16" value="Credentials&lt;br&gt;Not valid" style="text;html=1;strokeColor=none;fillColor=none;align=center;verticalAlign=middle;whiteSpace=wrap;rounded=0;" vertex="1" parent="1">
          <mxGeometry x="551" y="335" width="60" height="30" as="geometry" />
        </mxCell>
        <mxCell id="eZ3HsoYMMdEWsuuix7k3-17" value="Success" style="text;html=1;strokeColor=none;fillColor=none;align=center;verticalAlign=middle;whiteSpace=wrap;rounded=0;" vertex="1" parent="1">
          <mxGeometry x="446" y="425" width="60" height="30" as="geometry" />
        </mxCell>
        <mxCell id="eZ3HsoYMMdEWsuuix7k3-18" value="&lt;b&gt;Response code: 500&lt;/b&gt;&lt;br&gt;Internal server error" style="rounded=1;whiteSpace=wrap;html=1;absoluteArcSize=1;arcSize=14;strokeWidth=2;" vertex="1" parent="1">
          <mxGeometry x="9" y="335" width="131" height="70" as="geometry" />
        </mxCell>
        <mxCell id="eZ3HsoYMMdEWsuuix7k3-19" value="" style="endArrow=classic;html=1;rounded=0;exitX=0;exitY=0.5;exitDx=0;exitDy=0;entryX=1;entryY=0.5;entryDx=0;entryDy=0;" edge="1" parent="1" source="eZ3HsoYMMdEWsuuix7k3-2" target="eZ3HsoYMMdEWsuuix7k3-18">
          <mxGeometry width="50" height="50" relative="1" as="geometry">
            <mxPoint x="571" y="605" as="sourcePoint" />
            <mxPoint x="621" y="555" as="targetPoint" />
          </mxGeometry>
        </mxCell>
        <mxCell id="eZ3HsoYMMdEWsuuix7k3-20" value="" style="endArrow=classic;html=1;rounded=0;entryX=0;entryY=0.5;entryDx=0;entryDy=0;entryPerimeter=0;edgeStyle=elbowEdgeStyle;exitX=0.146;exitY=1.015;exitDx=0;exitDy=0;exitPerimeter=0;" edge="1" parent="1" source="eZ3HsoYMMdEWsuuix7k3-18" target="eZ3HsoYMMdEWsuuix7k3-21">
          <mxGeometry width="50" height="50" relative="1" as="geometry">
            <mxPoint x="46" y="405" as="sourcePoint" />
            <mxPoint x="46" y="775" as="targetPoint" />
            <Array as="points">
              <mxPoint x="46" y="655" />
            </Array>
          </mxGeometry>
        </mxCell>
        <mxCell id="eZ3HsoYMMdEWsuuix7k3-21" value="&lt;b&gt;Stop&lt;/b&gt;" style="strokeWidth=2;html=1;shape=mxgraph.flowchart.terminator;whiteSpace=wrap;" vertex="1" parent="1">
          <mxGeometry x="398" y="863" width="100" height="60" as="geometry" />
        </mxCell>
        <mxCell id="eZ3HsoYMMdEWsuuix7k3-22" value="" style="endArrow=classic;html=1;rounded=0;exitX=0.5;exitY=1;exitDx=0;exitDy=0;exitPerimeter=0;entryX=0.5;entryY=0;entryDx=0;entryDy=0;entryPerimeter=0;" edge="1" parent="1" source="eZ3HsoYMMdEWsuuix7k3-24" target="eZ3HsoYMMdEWsuuix7k3-21">
          <mxGeometry width="50" height="50" relative="1" as="geometry">
            <mxPoint x="571" y="595" as="sourcePoint" />
            <mxPoint x="621" y="545" as="targetPoint" />
          </mxGeometry>
        </mxCell>
        <mxCell id="eZ3HsoYMMdEWsuuix7k3-23" value="" style="endArrow=classic;html=1;rounded=0;exitX=0.5;exitY=1;exitDx=0;exitDy=0;exitPerimeter=0;entryX=0.5;entryY=0;entryDx=0;entryDy=0;entryPerimeter=0;" edge="1" parent="1" source="eZ3HsoYMMdEWsuuix7k3-5" target="eZ3HsoYMMdEWsuuix7k3-24">
          <mxGeometry width="50" height="50" relative="1" as="geometry">
            <mxPoint x="448" y="724" as="sourcePoint" />
            <mxPoint x="448" y="863" as="targetPoint" />
          </mxGeometry>
        </mxCell>
        <mxCell id="eZ3HsoYMMdEWsuuix7k3-24" value="&lt;b&gt;Response code: 500&lt;/b&gt;&lt;br&gt;Internal server error" style="rounded=1;whiteSpace=wrap;html=1;absoluteArcSize=1;arcSize=14;strokeWidth=2;" vertex="1" parent="1">
          <mxGeometry x="384" y="760" width="126" height="60" as="geometry" />
        </mxCell>
        <mxCell id="eZ3HsoYMMdEWsuuix7k3-25" value="" style="endArrow=classic;html=1;rounded=0;exitX=0.5;exitY=1;exitDx=0;exitDy=0;entryX=1;entryY=0.5;entryDx=0;entryDy=0;entryPerimeter=0;edgeStyle=orthogonalEdgeStyle;" edge="1" parent="1" source="eZ3HsoYMMdEWsuuix7k3-6" target="eZ3HsoYMMdEWsuuix7k3-21">
          <mxGeometry width="50" height="50" relative="1" as="geometry">
            <mxPoint x="571" y="595" as="sourcePoint" />
            <mxPoint x="621" y="545" as="targetPoint" />
          </mxGeometry>
        </mxCell>
        <mxCell id="eZ3HsoYMMdEWsuuix7k3-26" value="" style="endArrow=classic;html=1;rounded=0;exitX=0.75;exitY=1;exitDx=0;exitDy=0;entryX=1;entryY=0.5;entryDx=0;entryDy=0;entryPerimeter=0;edgeStyle=orthogonalEdgeStyle;" edge="1" parent="1" source="eZ3HsoYMMdEWsuuix7k3-4" target="eZ3HsoYMMdEWsuuix7k3-21">
          <mxGeometry width="50" height="50" relative="1" as="geometry">
            <mxPoint x="561" y="605" as="sourcePoint" />
            <mxPoint x="611" y="555" as="targetPoint" />
          </mxGeometry>
        </mxCell>
        <mxCell id="eZ3HsoYMMdEWsuuix7k3-27" value="Success" style="text;html=1;strokeColor=none;fillColor=none;align=center;verticalAlign=middle;whiteSpace=wrap;rounded=0;" vertex="1" parent="1">
          <mxGeometry x="311" y="645" width="60" height="30" as="geometry" />
        </mxCell>
        <mxCell id="eZ3HsoYMMdEWsuuix7k3-28" value="Invalid address book id" style="text;html=1;strokeColor=none;fillColor=none;align=center;verticalAlign=middle;whiteSpace=wrap;rounded=0;" vertex="1" parent="1">
          <mxGeometry x="501" y="637" width="60" height="30" as="geometry" />
        </mxCell>
        <mxCell id="eZ3HsoYMMdEWsuuix7k3-29" value="Internal error" style="text;html=1;strokeColor=none;fillColor=none;align=center;verticalAlign=middle;whiteSpace=wrap;rounded=0;" vertex="1" parent="1">
          <mxGeometry x="241" y="335" width="60" height="30" as="geometry" />
        </mxCell>
        <mxCell id="eZ3HsoYMMdEWsuuix7k3-30" value="Internal errot" style="text;html=1;strokeColor=none;fillColor=none;align=center;verticalAlign=middle;whiteSpace=wrap;rounded=0;" vertex="1" parent="1">
          <mxGeometry x="376" y="724" width="60" height="30" as="geometry" />
        </mxCell>
        <mxCell id="eZ3HsoYMMdEWsuuix7k3-31" value="GET" style="text;html=1;strokeColor=none;fillColor=none;align=center;verticalAlign=middle;whiteSpace=wrap;rounded=0;" vertex="1" parent="1">
          <mxGeometry x="449.25" y="275" width="60" height="30" as="geometry" />
        </mxCell>
        <mxCell id="eZ3HsoYMMdEWsuuix7k3-32" value="Request with&lt;br&gt;JWT Access Token &amp;amp; row-size, start-index" style="text;html=1;strokeColor=none;fillColor=none;align=center;verticalAlign=middle;whiteSpace=wrap;rounded=0;" vertex="1" parent="1">
          <mxGeometry x="310" y="260" width="139.25" height="45" as="geometry" />
        </mxCell>
        <mxCell id="eZ3HsoYMMdEWsuuix7k3-33" value="" style="endArrow=classic;html=1;rounded=0;entryX=0;entryY=0.5;entryDx=0;entryDy=0;entryPerimeter=0;exitX=0.5;exitY=1;exitDx=0;exitDy=0;edgeStyle=orthogonalEdgeStyle;" edge="1" parent="1" source="eZ3HsoYMMdEWsuuix7k3-8" target="eZ3HsoYMMdEWsuuix7k3-21">
          <mxGeometry width="50" height="50" relative="1" as="geometry">
            <mxPoint x="181" y="865" as="sourcePoint" />
            <mxPoint x="341" y="645" as="targetPoint" />
          </mxGeometry>
        </mxCell>
        <mxCell id="eZ3HsoYMMdEWsuuix7k3-34" value="" style="endArrow=classic;html=1;rounded=0;exitX=0.5;exitY=1;exitDx=0;exitDy=0;entryX=0.5;entryY=0;entryDx=0;entryDy=0;" edge="1" parent="1" source="eZ3HsoYMMdEWsuuix7k3-7" target="eZ3HsoYMMdEWsuuix7k3-8">
          <mxGeometry width="50" height="50" relative="1" as="geometry">
            <mxPoint x="301" y="695" as="sourcePoint" />
            <mxPoint x="351" y="645" as="targetPoint" />
          </mxGeometry>
        </mxCell>
      </root>
    </mxGraphModel>
  </diagram>
</mxfile>
